ply
format ascii 1.0
comment GaussPatrol synthetic range-map Gaussian surrogate
element vertex 56
property float x
property float y
property float z
property float scale
property float opacity
property uchar red
property uchar green
property uchar blue
end_header
5.16292 1.64595 0.40000 0.22500 1.00000 52 152 219
5.07373 2.20128 0.40000 0.22500 0.99000 52 152 219
5.06613 2.74788 0.40000 0.22500 0.99000 52 152 219
5.07004 3.20856 0.40000 0.22500 0.91000 52 152 219
5.06182 3.78437 0.40000 0.22500 1.00000 52 152 219
5.07781 4.28480 0.40000 0.22500 0.83000 52 152 219
5.06636 4.77748 0.40000 0.22500 0.99000 52 152 219
5.14734 5.36428 0.40000 0.22500 1.00000 52 152 219
5.76547 1.55100 0.40000 0.22500 1.00000 52 152 219
5.89054 5.49343 0.40000 0.22500 0.51000 52 152 219
6.25000 1.56565 0.40000 0.22500 0.99000 52 152 219
6.09406 5.43453 0.40000 0.22500 0.59000 52 152 219
6.79962 1.61325 0.40000 0.22500 1.00000 52 152 219
6.91659 2.20495 0.40000 0.22500 0.75000 52 152 219
6.98280 2.72801 0.40000 0.22500 0.75000 52 152 219
6.95529 3.31503 0.40000 0.22500 0.51000 52 152 219
6.95264 3.67491 0.40000 0.22500 0.67000 52 152 219
6.90911 4.45232 0.40000 0.22500 0.43000 52 152 219
6.97876 4.52124 0.40000 0.22500 0.43000 52 152 219
6.95823 5.23528 0.40000 0.22500 0.51000 52 152 219
8.14303 8.82444 0.40000 0.22500 0.99000 52 152 219
8.15462 9.23412 0.40000 0.22500 0.99000 52 152 219
8.20754 9.74130 0.40000 0.22500 1.00000 52 152 219
8.20780 10.31115 0.40000 0.22500 1.00000 52 152 219
8.19038 10.86709 0.40000 0.22500 1.00000 52 152 219
8.01314 11.00000 0.40000 0.22500 0.43000 52 152 219
10.50000 8.35289 0.40000 0.22500 0.43000 52 152 219
10.52561 8.97300 0.40000 0.22500 0.51000 52 152 219
10.58359 9.20881 0.40000 0.22500 0.43000 52 152 219
10.71611 9.88687 0.40000 0.22500 1.00000 52 152 219
11.27724 9.95567 0.40000 0.22500 1.00000 52 152 219
11.78006 9.91419 0.40000 0.22500 0.91000 52 152 219
12.27852 9.95871 0.40000 0.22500 1.00000 52 152 219
12.71310 9.91455 0.40000 0.22500 0.99000 52 152 219
13.43919 7.25000 0.40000 0.22500 0.67000 52 152 219
13.45960 7.78632 0.40000 0.22500 0.83000 52 152 219
13.45135 8.27058 0.40000 0.22500 0.75000 52 152 219
13.44892 8.76700 0.40000 0.22500 0.83000 52 152 219
13.44778 9.19703 0.40000 0.22500 0.91000 52 152 219
13.33721 9.83902 0.40000 0.22500 1.00000 52 152 219
15.20562 4.07907 0.40000 0.22500 1.00000 52 152 219
15.00000 4.64711 0.40000 0.22500 0.43000 52 152 219
15.04957 5.26604 0.40000 0.22500 0.51000 52 152 219
15.39536 5.94936 0.40000 0.22500 0.67000 52 152 219
15.21891 6.00000 0.40000 0.22500 0.43000 52 152 219
15.78519 4.08690 0.40000 0.22500 0.99000 52 152 219
15.86994 5.92372 0.40000 0.22500 0.43000 52 152 219
16.21253 4.05882 0.40000 0.22500 1.00000 52 152 219
16.27199 5.98280 0.40000 0.22500 0.75000 52 152 219
16.83562 4.15142 0.40000 0.22500 1.00000 52 152 219
16.93624 4.70291 0.40000 0.22500 0.91000 52 152 219
16.94049 5.20265 0.40000 0.22500 1.00000 52 152 219
16.87936 5.77775 0.40000 0.22500 1.00000 52 152 219
16.95096 6.00000 0.40000 0.22500 0.43000 52 152 219
17.00000 4.75000 0.40000 0.22500 0.51000 52 152 219
17.00000 5.75000 0.40000 0.22500 0.51000 52 152 219
